<?xml version="1.0" encoding="utf-8"?>
<!-- Generator: Adobe Illustrator 27.5.0, SVG Export Plug-In . SVG Version: 6.00 Build 0)  -->
<svg version="1.1" xmlns="http://www.w3.org/2000/svg" xmlns:xlink="http://www.w3.org/1999/xlink" x="0px" y="0px"
	 viewBox="0 0 500 500" style="enable-background:new 0 0 500 500;" xml:space="preserve">
<g id="Background_Simple">
	<g>
		<path style="opacity:0.7;fill:#FFFFFF;" d="M67.931,167.086c0,0-27.877,71.988,11.297,144.503
			c39.174,72.516,119.879,110.802,184.469,143.548c64.59,32.746,131.661,16.799,163.534-36.838
			c31.873-53.637-11.845-91.928-11.897-168.418c-0.051-76.49,11.447-96.742-29.963-161.364
			c-41.41-64.623-143.059-78.925-219.9-30.996C88.631,105.45,67.931,167.086,67.931,167.086z"/>
	</g>
	<g>
		<path style="fill:#92E3A9;" d="M99.704,82.866c13.449-16.078,31.635-28.522,53.312-28.255
			c36.99,0.455,56.985,33.202,78.223,58.468c11.012,13.102,23.487,25.742,39.828,31.895c24.517,9.232,51.814,3.841,75.697-4.728
			c10.698-3.838,23.372-9.236,35.42-6.48c36.631,8.38,32.814,53.086,26.763,81.389c-8.17,38.215-21.446,78.904-48.359,108.268
			c-64.425,70.292-180.379,27.202-238.494-28.888c-4.272-4.123-8.365-8.431-12.213-12.953c-9.953-11.697-18.496-24.6-25.161-38.445
			c-18.747-38.945-21.325-86.292-5.082-126.541C84.358,104.898,91.192,93.042,99.704,82.866z"/>
		<path style="opacity:0.7;fill:#FFFFFF;" d="M99.704,82.866c13.449-16.078,31.635-28.522,53.312-28.255
			c36.99,0.455,56.985,33.202,78.223,58.468c11.012,13.102,23.487,25.742,39.828,31.895c24.517,9.232,51.814,3.841,75.697-4.728
			c10.698-3.838,23.372-9.236,35.42-6.48c36.631,8.38,32.814,53.086,26.763,81.389c-8.17,38.215-21.446,78.904-48.359,108.268
			c-64.425,70.292-180.379,27.202-238.494-28.888c-4.272-4.123-8.365-8.431-12.213-12.953c-9.953-11.697-18.496-24.6-25.161-38.445
			c-18.747-38.945-21.325-86.292-5.082-126.541C84.358,104.898,91.192,93.042,99.704,82.866z"/>
	</g>
</g>
<g id="Bricks">
	<g>
		
			<rect x="300.343" y="314.694" transform="matrix(-1 -1.224647e-16 1.224647e-16 -1 625.633 639.4108)" style="fill:none;stroke:#92E3A9;stroke-linecap:round;stroke-linejoin:round;stroke-miterlimit:10;" width="24.947" height="10.022"/>
		
			<rect x="287.869" y="301.466" transform="matrix(-1 -1.224647e-16 1.224647e-16 -1 600.6858 612.9532)" style="fill:none;stroke:#92E3A9;stroke-linecap:round;stroke-linejoin:round;stroke-miterlimit:10;" width="24.947" height="10.022"/>
		
			<rect x="230.614" y="220.568" transform="matrix(-1 -1.224647e-16 1.224647e-16 -1 486.1754 451.1572)" style="fill:none;stroke:#92E3A9;stroke-linecap:round;stroke-linejoin:round;stroke-miterlimit:10;" width="24.947" height="10.022"/>
		
			<rect x="244.283" y="208.099" transform="matrix(-1 -1.224647e-16 1.224647e-16 -1 513.5124 426.2202)" style="fill:none;stroke:#92E3A9;stroke-linecap:round;stroke-linejoin:round;stroke-miterlimit:10;" width="24.947" height="10.022"/>
		
			<rect x="337.141" y="95.212" transform="matrix(-1 -1.224647e-16 1.224647e-16 -1 699.2287 200.445)" style="fill:none;stroke:#92E3A9;stroke-linecap:round;stroke-linejoin:round;stroke-miterlimit:10;" width="24.947" height="10.022"/>
		
			<rect x="323.959" y="81.871" transform="matrix(-1 -1.224647e-16 1.224647e-16 -1 672.8648 173.7634)" style="fill:none;stroke:#92E3A9;stroke-linecap:round;stroke-linejoin:round;stroke-miterlimit:10;" width="24.947" height="10.022"/>
		
			<rect x="143.429" y="87.269" transform="matrix(-1 -1.224647e-16 1.224647e-16 -1 311.8062 184.5604)" style="fill:none;stroke:#92E3A9;stroke-linecap:round;stroke-linejoin:round;stroke-miterlimit:10;" width="24.947" height="10.022"/>
		
			<rect x="130.248" y="73.928" transform="matrix(-1 -1.224647e-16 1.224647e-16 -1 285.4424 157.8788)" style="fill:none;stroke:#92E3A9;stroke-linecap:round;stroke-linejoin:round;stroke-miterlimit:10;" width="24.947" height="10.022"/>
		
			<rect x="218.494" y="130.483" transform="matrix(-1 -1.224647e-16 1.224647e-16 -1 461.9363 270.9879)" style="fill:none;stroke:#92E3A9;stroke-linecap:round;stroke-linejoin:round;stroke-miterlimit:10;" width="24.947" height="10.022"/>
		
			<rect x="351.631" y="191.186" transform="matrix(-1 -1.224647e-16 1.224647e-16 -1 728.2084 392.3938)" style="fill:none;stroke:#92E3A9;stroke-linecap:round;stroke-linejoin:round;stroke-miterlimit:10;" width="24.947" height="10.022"/>
		
			<rect x="381.273" y="278.992" transform="matrix(-1 -1.224647e-16 1.224647e-16 -1 787.4932 568.0055)" style="fill:none;stroke:#92E3A9;stroke-linecap:round;stroke-linejoin:round;stroke-miterlimit:10;" width="24.947" height="10.022"/>
		
			<rect x="258.569" y="220.568" transform="matrix(-1 -1.224647e-16 1.224647e-16 -1 542.0846 451.1572)" style="fill:none;stroke:#92E3A9;stroke-linecap:round;stroke-linejoin:round;stroke-miterlimit:10;" width="24.947" height="10.022"/>
		<path style="fill:none;stroke:#92E3A9;stroke-linecap:round;stroke-linejoin:round;stroke-miterlimit:10;" d="M357.162,259.709
			c-24.255-0.266-49.255-0.266-72.76,0"/>
		<path style="fill:none;stroke:#92E3A9;stroke-linecap:round;stroke-linejoin:round;stroke-miterlimit:10;" d="M367.153,259.709
			c-2.032,0-4.065,0-6.097,0"/>
		<path style="fill:none;stroke:#92E3A9;stroke-linecap:round;stroke-linejoin:round;stroke-miterlimit:10;" d="M76.04,287.911
			c24.255,0.266,49.255,0.266,72.76,0"/>
		<path style="fill:none;stroke:#92E3A9;stroke-linecap:round;stroke-linejoin:round;stroke-miterlimit:10;" d="M66.049,287.911
			c2.032,0,4.065,0,6.097,0"/>
		<path style="fill:none;stroke:#92E3A9;stroke-linecap:round;stroke-linejoin:round;stroke-miterlimit:10;" d="M242.324,156.27
			c1.147,0,2.294,0,3.441,0"/>
		<path style="fill:none;stroke:#92E3A9;stroke-linecap:round;stroke-linejoin:round;stroke-miterlimit:10;" d="M206.073,156.27
			c10.782,0,21.563,0,32.345,0"/>
		
			<rect x="63.466" y="220.992" style="fill:none;stroke:#92E3A9;stroke-linecap:round;stroke-linejoin:round;stroke-miterlimit:10;" width="24.947" height="10.022"/>
		<path style="fill:none;stroke:#92E3A9;stroke-linecap:round;stroke-linejoin:round;stroke-miterlimit:10;" d="M64.583,205.228
			c-1.147,0-2.294,0-3.44,0"/>
		<path style="fill:none;stroke:#92E3A9;stroke-linecap:round;stroke-linejoin:round;stroke-miterlimit:10;" d="M100.835,205.228
			c-10.782,0-21.563,0-32.345,0"/>
	</g>
</g>
<g id="Floor">
	
		<line style="fill:none;stroke:#263238;stroke-linecap:round;stroke-linejoin:round;stroke-miterlimit:10;" x1="34.791" y1="406.029" x2="465.209" y2="406.029"/>
</g>
<g id="Bag">
	<g>
		<path style="fill:#263238;" d="M299.28,416.186c0,0-6.443,9.119,0.225,12.172c6.668,3.053,65.734-3.971,93.371-4.262
			c27.637-0.291,42.745-10.694,42.158-13.86c-0.586-3.166-7.338-9.176-7.338-9.176l-4.689,5.495c0,0,5.036,1.495,4.861,3.814
			c-0.175,2.319-18.451,9.869-41.483,6.689c-23.032-3.18-72.105,6.683-75.974,6.243c-3.869-0.44-0.169-9.141-0.169-9.141
			L299.28,416.186z"/>
		<g>
			<defs>
				<path id="XMLID_616_" d="M392.004,419.822c-36.31,2.52-96.64,1.67-96.64,1.67c-31.14-2.27-37.04-12.54-32.14-24.23
					c7.57-18.01,40.82-39.35,46.88-39.85c9.99-0.81,20.52,3.16,20.52,3.16l6.5-1.37c-2-5.39,18.55-17.39,27.94-12.21
					c9.38,5.19,28.8-1.93,34.65,1.72c1.62,1.01,2.91,2.38,3.92,3.83c2.65,3.79,3.43,8.16,3.43,8.16s0.01,0,0.03-0.01
					c0.02,0,0.05-0.01,0.08-0.02c0.01,0.01,0.01,0,0.02,0c0.47-0.14,2.21-0.58,4.5-0.7c3.22-0.17,7.51,0.32,10.87,3.25
					c0.77,0.67,1.59,1.49,2.45,2.42c6.06,6.62,13.86,19.13,15.66,26.43C442.724,400.402,428.304,417.292,392.004,419.822z"/>
			</defs>
			<use xlink:href="#XMLID_616_"  style="overflow:visible;fill:#999999;"/>
			<clipPath id="XMLID_00000066497358073438213210000005340082009431662504_">
				<use xlink:href="#XMLID_616_"  style="overflow:visible;"/>
			</clipPath>
			<g style="clip-path:url(#XMLID_00000066497358073438213210000005340082009431662504_);">
				<path style="opacity:0.2;" d="M360.874,352.662c-1.77-3.11,20.58-1.64,22.95,0c2.38,1.64,2.38,6.78,4.95,5.39
					c2.05-1.1,9.86-5.33,14.86-5.51c2.65,3.79,3.43,8.16,3.43,8.16s-30.75,8.69-32.73,6.38c-1.98-2.3,5.54-4.23,7.91-9.3
					c2.37-5.07-7.12-3.68-9.09-3.64C371.174,354.172,362.644,355.762,360.874,352.662z"/>
				<path style="opacity:0.2;" d="M392.004,419.822c-36.31,2.52-96.64,1.67-96.64,1.67c-31.14-2.27-37.04-12.54-32.14-24.23
					c1.2,0.94,3.26,1.36,6.64,0.71c11.11-2.14,17.43-2.73,24.56,3.99c7.12,6.73,15.24,10.82,18.98,9.5c0,0,0.52-14.86,15-25.53
					c14.48-10.67,17.89-7.64,20.78-10.47c2.9-2.83,4.6-7.96-3.7-10.92c-8.29-2.95-12.34-3.97-12.34-3.97s9.14-0.71,17.06,2.84
					c7.91,3.54,14.83,12.01,11.47,13.91c-3.36,1.9,4.94,5.31,10.68,4.4c5.08-0.82,21.94-0.91,25.32-1.05
					c-3.03,0.64-16.42,4.83-16.42,8.05c0,0,4.14,6.8,4.11,14.49c-0.03,7.68,8.97,8.67,12.91,5.79c3.95-2.88,4.73-6.83,3.25-14.35
					c-1.48-7.52-5.62-8.08-10.97-6.91c0,0,6.92-4.17,9.1-2.79c2.17,1.39,8.3,0.8,9.49,7.32c1.19,6.53-2.97,11.87-0.99,13.65
					c1.98,1.78,13.45-0.2,15.43-3.96c1.98-3.75,0.67-25.57-1.24-26.03c-1.88-0.45-11.46,2.47-11.73,2.55
					c0.08-0.25,1.44-4.2,5.85-4.98c3.52-0.62,7.86-4.08,8.55-7.86c6.06,6.62,13.86,19.13,15.66,26.43
					C442.724,400.402,428.304,417.292,392.004,419.822z"/>
			</g>
			
				<use xlink:href="#XMLID_616_"  style="overflow:visible;fill:none;stroke:#263238;stroke-linecap:round;stroke-linejoin:round;stroke-miterlimit:10;"/>
		</g>
		<path style="fill:none;stroke:#263238;stroke-linecap:round;stroke-linejoin:round;stroke-miterlimit:10;" d="M330.622,360.571
			c0,0,4.545,1.516,16.018,4.247c11.473,2.731,5.143,11.983-3.165,12.5s-29.667,19.068-30.066,31.684
			c-0.399,12.617,16.59,10.767,16.59,10.767"/>
		<path style="fill:none;stroke:#263238;stroke-linecap:round;stroke-linejoin:round;stroke-miterlimit:10;" d="M337.128,359.201
			c0,0,15.841-0.674,26.523,5.618c10.681,6.292,39.165-2.511,39.165-2.511"/>
		<path style="fill:none;stroke:#263238;stroke-linecap:round;stroke-linejoin:round;stroke-miterlimit:10;" d="M382.244,388.718
			c4.747,6.524,2.769,27.384,2.769,27.384s31.37-2.865,40.015-9.884c8.645-7.02,1.128-29.859-3.619-30.703
			c-4.747-0.844-22.154,9.061-36,11.031"/>
		<path style="fill:none;stroke:#263238;stroke-linecap:round;stroke-linejoin:round;stroke-miterlimit:10;" d="M387.387,388.718
			c0,0,9.89-3.755,11.868,0c1.978,3.755,5.902,16.484,3.56,20.892s-11.077,3.589-11.077,3.589"/>
		<path style="fill:none;stroke:#263238;stroke-linecap:round;stroke-linejoin:round;stroke-miterlimit:10;" d="M350.2,348.956
			c0,0,12.642,5.331,19.772,5.237c7.129-0.094,15.437-0.635,12.272,3.591c-3.165,4.227-3.956,5.623-3.956,5.623"/>
		<path style="fill:none;stroke:#263238;stroke-linecap:round;stroke-linejoin:round;stroke-miterlimit:10;" d="M318.975,396.047
			c0,0,14.214,4.959,29.643,2.67c15.429-2.289,17.951,0.448,17.951,0.448v10.444c0,0-10.039-1.851-16.368,0
			c-6.33,1.851-27.297,3.263-36.791-0.608"/>
		<path style="fill:none;stroke:#263238;stroke-linecap:round;stroke-linejoin:round;stroke-miterlimit:10;" d="M314.806,403.207
			c0,0,5.23,1.464,18.334,1.497c13.104,0.033,25.368-1.081,25.368-1.081"/>
		<path style="fill:#92E3A9;stroke:#263238;stroke-linecap:round;stroke-linejoin:round;stroke-miterlimit:10;" d="M311.719,372.549
			l-0.405-4.548c-0.046-0.523,0.303-1,0.817-1.112l10.616-2.321c0.61-0.133,1.199,0.295,1.262,0.916l0.43,4.295
			c0.052,0.518-0.287,0.996-0.793,1.118l-10.641,2.574C312.384,373.621,311.776,373.184,311.719,372.549z"/>
		<polygon style="fill:#263238;" points="315.585,367.552 321.321,368.539 320.035,369.295 313.903,368.424 		"/>
		<path style="fill:#263238;" d="M327.354,362.011c0,0,3.165-2.832,7.022-2.831c3.857,0.001,6.824,1.187,6.429,1.416
			c-0.396,0.229-6.527,1.44-7.664,2.812L327.354,362.011z"/>
		<path style="fill:#263238;" d="M270.288,410.262c0,0-12.461,4.068-5.736,8.815c6.725,4.747,15.824,3.758,23.242-0.989l0.791-4.451
			c0,0-4.549,0.619-8.407,2.584c-3.857,1.965-12.857-0.013-12.264-1.101c0.593-1.088,2.176-1.088,2.176-1.088L270.288,410.262z"/>
		<path style="fill:#263238;" d="M308.678,421.192c0.926,4.968,35.687-2.2,63.91-7.182c28.224-4.982,53.206,0.794,55.281-3.642
			c2.075-4.436,7.166-0.132,7.166-0.132s-3.386,7.591-11.667,10.977c-8.282,3.386-47.169,2.595-68.98,7.068
			c-21.811,4.473-60.555,10.983-57.768-5.989L308.678,421.192z"/>
	</g>
</g>
<g id="Character">
	<g>
		<g>
			<defs>
				<path id="XMLID_609_" d="M74.972,363.982c0,0-0.569,25.769,42.093,44.77c42.662,19.002,158.663,28.268,179.793-38.697
					l-65.708-18.87h-88.142l-19.406,8.793L74.972,363.982z"/>
			</defs>
			<use xlink:href="#XMLID_609_"  style="overflow:visible;fill:#92E3A9;"/>
			<clipPath id="XMLID_00000107560201208189287600000012998226626226212487_">
				<use xlink:href="#XMLID_609_"  style="overflow:visible;"/>
			</clipPath>
			<path style="opacity:0.2;clip-path:url(#XMLID_00000107560201208189287600000012998226626226212487_);" d="M74.972,363.982
				c0,0-0.569,25.769,42.093,44.77c42.662,19.002,158.663,28.268,179.793-38.697l-65.708-18.87h-88.142l-19.406,8.793
				L74.972,363.982z"/>
			
				<use xlink:href="#XMLID_609_"  style="overflow:visible;fill:none;stroke:#263238;stroke-linecap:round;stroke-linejoin:round;stroke-miterlimit:10;"/>
		</g>
		<path style="fill:#263238;" d="M125.089,250.849c-7.739,6.91-34.58,85.041-31.11,93.518s48.966,16.307,48.966,16.307
			s-4.496-88.173-4.727-89.647C137.988,269.553,125.089,250.849,125.089,250.849z"/>
		<path style="fill:#263238;" d="M245.677,250.849c7.739,6.91,34.58,85.041,31.11,93.518s-48.966,16.307-48.966,16.307
			s4.496-88.173,4.727-89.647C232.778,269.553,245.677,250.849,245.677,250.849z"/>
		<path style="fill:#263238;" d="M125.089,250.849c0,0,17.856-20.178,60.1-21.376c33.94-0.962,57.171,15.847,60.488,21.376
			c3.317,5.528-15.095,79.237-15.095,79.237l10.304,39.68c0,0-55.281,18.427-104.666,0l6.634-41.891
			C142.853,327.875,125.457,261.168,125.089,250.849z"/>
		<g style="opacity:0.5;">
			<path style="fill:none;stroke:#FFFFFF;stroke-linecap:round;stroke-linejoin:round;stroke-miterlimit:10;" d="M208.751,237.582
				c0,0-15.299,16.861-30.832,12.162"/>
			<path style="fill:none;stroke:#FFFFFF;stroke-linecap:round;stroke-linejoin:round;stroke-miterlimit:10;" d="M195.956,268.701
				c3.568,0.69,7.201,1.163,10.835,1.4"/>
			<path style="fill:none;stroke:#FFFFFF;stroke-linecap:round;stroke-linejoin:round;stroke-miterlimit:10;" d="M152.071,247.479
				c9.705,8.827,24.025,16.393,39.151,20.174"/>
			<path style="fill:none;stroke:#FFFFFF;stroke-linecap:round;stroke-linejoin:round;stroke-miterlimit:10;" d="M236.302,264.953
				c-3.121,6.041-5.301,12.679-5.643,19.503"/>
			<path style="fill:none;stroke:#FFFFFF;stroke-linecap:round;stroke-linejoin:round;stroke-miterlimit:10;" d="M243.373,254.166
				c-1.644,1.947-3.11,4.049-4.46,6.207"/>
			<path style="fill:none;stroke:#FFFFFF;stroke-linecap:round;stroke-linejoin:round;stroke-miterlimit:10;" d="M244.755,275.173
				c-6.91,3.04-13.268,13.82-13.268,13.82s4.423,8.292,6.634,17.69"/>
			<path style="fill:none;stroke:#FFFFFF;stroke-linecap:round;stroke-linejoin:round;stroke-miterlimit:10;" d="M234.252,332.666
				c0,0,6.467-1.047,10.503-5.368c4.037-4.32,15.755-3.156,17.414,0"/>
			<path style="fill:none;stroke:#FFFFFF;stroke-linecap:round;stroke-linejoin:round;stroke-miterlimit:10;" d="M248.9,322.127
				c0,0,4.147-6.322,13.269-1.9"/>
			<path style="fill:none;stroke:#FFFFFF;stroke-linecap:round;stroke-linejoin:round;stroke-miterlimit:10;" d="M128.684,256.109
				c0,0,9.109,6.071,9.996,22.638"/>
			<path style="fill:none;stroke:#FFFFFF;stroke-linecap:round;stroke-linejoin:round;stroke-miterlimit:10;" d="M134.884,295.391
				c-2.47,6.827-5.151,13.81-6.497,20.967"/>
			<path style="fill:none;stroke:#FFFFFF;stroke-linecap:round;stroke-linejoin:round;stroke-miterlimit:10;" d="M130.635,278.748
				c2.417,0.615,7.884,2.907,8.35,5.72c0.217,1.312-1.709,4.452-2.16,5.656"/>
			<path style="fill:none;stroke:#FFFFFF;stroke-linecap:round;stroke-linejoin:round;stroke-miterlimit:10;" d="M120.697,322.964
				c1.899-0.313,3.974-0.005,5.286,1.513"/>
			<path style="fill:none;stroke:#FFFFFF;stroke-linecap:round;stroke-linejoin:round;stroke-miterlimit:10;" d="M110.698,327.298
				c1.645-1.091,3.383-2.047,5.188-2.847"/>
			<path style="fill:none;stroke:#FFFFFF;stroke-linecap:round;stroke-linejoin:round;stroke-miterlimit:10;" d="M119.819,330.455
				c0,0,0.591-4.931,8.864-3.156s27.892,7.859,27.892,7.859"/>
		</g>
		<path style="fill:#FFFFFF;stroke:#263238;stroke-linecap:round;stroke-linejoin:round;stroke-miterlimit:10;" d="M206.9,236.05
			c0,0-9.5,9.35-20.95,9.35s-22.48-10.83-22.48-10.83s5.93-2.95,7.52-8.86c0.1-0.35,0.18-0.72,0.24-1.09
			c0.43-2.59-0.26-6.96-1.26-11.35c-1.57-6.85-3.9-13.71-3.9-13.71h37.15c0,0-1.76,8.57-2.92,16.47c-0.21,1.45-0.41,2.87-0.56,4.22
			c-0.17,1.45-0.31,2.8-0.38,4C198.85,232.62,206.9,236.05,206.9,236.05z"/>
		<g>
			<g>
				<defs>
					<path id="XMLID_608_" d="M241.869,369.841v4.29c0,0.238-0.028,0.461-0.084,0.685c-0.307,1.258-1.453,2.208-2.823,2.208H137.177
						c-1.369,0-2.515-0.95-2.823-2.208c-0.056-0.224-0.084-0.447-0.084-0.685v-4.29H241.869z"/>
				</defs>
				<use xlink:href="#XMLID_608_"  style="overflow:visible;fill:#757575;"/>
				<clipPath id="XMLID_00000034083411123945635150000013112667871243019912_">
					<use xlink:href="#XMLID_608_"  style="overflow:visible;"/>
				</clipPath>
				<path style="opacity:0.2;clip-path:url(#XMLID_00000034083411123945635150000013112667871243019912_);" d="M241.869,369.841
					v4.29c0,0.238-0.028,0.461-0.084,0.685H134.354c-0.056-0.224-0.084-0.447-0.084-0.685v-4.29H241.869z"/>
				
					<use xlink:href="#XMLID_608_"  style="overflow:visible;fill:none;stroke:#263238;stroke-linecap:round;stroke-linejoin:round;stroke-miterlimit:10;"/>
			</g>
			<path style="fill:#757575;stroke:#263238;stroke-linecap:round;stroke-linejoin:round;stroke-miterlimit:10;" d="
				M240.862,372.699H135.274c-1.069,0-2.026-0.738-2.139-1.651l-9.171-73.961c-0.155-1.249,0.738-2.266,1.995-2.266h124.218
				c1.257,0,2.15,1.017,1.995,2.266l-9.171,73.961C242.888,371.961,241.93,372.699,240.862,372.699z"/>
			<path style="opacity:0.2;fill:#FFFFFF;" d="M135.696,371.143l-9.039-70.931c-0.106-0.83,0.592-1.614,1.434-1.614h119.953
				c0.842,0,1.54,0.784,1.434,1.614l-9.039,70.931"/>
			<path style="fill:none;stroke:#263238;stroke-linecap:round;stroke-linejoin:round;stroke-miterlimit:10;" d="M135.696,371.143
				l-9.039-70.931c-0.106-0.83,0.592-1.614,1.434-1.614h119.953c0.842,0,1.54,0.784,1.434,1.614l-9.039,70.931"/>
			<g>
				<polygon style="fill:#92E3A9;stroke:#263238;stroke-linecap:round;stroke-linejoin:round;stroke-miterlimit:10;" points="
					189.269,340.19 178.418,340.19 191.021,326.994 185.168,337.466 				"/>
				<polygon style="fill:#92E3A9;stroke:#263238;stroke-linecap:round;stroke-linejoin:round;stroke-miterlimit:10;" points="
					185.017,347.114 198.395,334.196 187.801,334.196 191.6,337.001 				"/>
			</g>
		</g>
		<g>
			<g>
				<path style="fill:#92E3A9;stroke:#263238;stroke-linecap:round;stroke-linejoin:round;stroke-miterlimit:10;" d="
					M275.864,414.814l3.195,3.636c0,0,2.981,6.821-5.288,15.171c-8.269,8.35-29.778,10.035-38.142,8.548l-5.271,0.711l-17.927-3.849
					c0,0-9.078-4.443-5.372-12.234C210.766,419.008,275.864,414.814,275.864,414.814z"/>
				<g>
					<defs>
						<path id="XMLID_611_" d="M270.362,432.333c-6.931,7.224-29.136,8.664-38.4,6.554c-2.529-0.573-11.738-0.908-18.599-3.368
							c-3.703-1.314-6.722-3.242-7.644-6.163c-2.655-8.328,20.779-24.175,20.779-24.175s14.952,2.879,18.054,3.619
							c4.262,0.992,7.825,1.383,10.956,1.523c7.113,0.307,11.92-0.643,17.132,1.593
							C278.579,414.474,278.663,423.669,270.362,432.333z"/>
					</defs>
					<use xlink:href="#XMLID_611_"  style="overflow:visible;fill:#757575;"/>
					<clipPath id="XMLID_00000099620581391857382540000005071800230664628902_">
						<use xlink:href="#XMLID_611_"  style="overflow:visible;"/>
					</clipPath>
					<path style="opacity:0.2;clip-path:url(#XMLID_00000099620581391857382540000005071800230664628902_);" d="M255.508,410.324
						c-5.338,8.72-18.669,25.461-42.145,25.195c-3.703-1.314-6.722-3.242-7.644-6.163c-2.655-8.328,20.779-24.175,20.779-24.175
						s14.952,2.879,18.054,3.619C248.814,409.793,252.378,410.184,255.508,410.324z"/>
					
						<use xlink:href="#XMLID_611_"  style="overflow:visible;fill:none;stroke:#263238;stroke-linecap:round;stroke-linejoin:round;stroke-miterlimit:10;"/>
				</g>
				<path style="fill:none;stroke:#263238;stroke-linecap:round;stroke-linejoin:round;stroke-miterlimit:10;" d="M222.25,415.35
					c0,0,23.008,6.941,27.322,6.494c4.314-0.447,4.848,3.086,4.848,3.086"/>
				<path style="fill:none;stroke:#263238;stroke-linecap:round;stroke-linejoin:round;stroke-miterlimit:10;" d="M225.938,406.977
					c0,0,25.243,5.405,28.295,6.301c3.052,0.896,5.59-0.248,5.59-0.248"/>
				<path style="fill:none;stroke:#263238;stroke-linecap:round;stroke-linejoin:round;stroke-miterlimit:10;" d="M230.615,407.401
					c0,0-0.167,7.56-7.977,11.553"/>
				<path style="fill:none;stroke:#263238;stroke-linecap:round;stroke-linejoin:round;stroke-miterlimit:10;" d="M235.342,408.263
					c0,0-0.357,7.45-6.687,12.205"/>
				<path style="fill:none;stroke:#263238;stroke-linecap:round;stroke-linejoin:round;stroke-miterlimit:10;" d="M240.367,409.988
					c0,0,1.362,7.382-6.487,12.813"/>
				<path style="fill:none;stroke:#263238;stroke-linecap:round;stroke-linejoin:round;stroke-miterlimit:10;" d="M245.67,410.578
					c0,0,1.189,9.304-6.387,14.072"/>
				<path style="fill:none;stroke:#263238;stroke-linecap:round;stroke-linejoin:round;stroke-miterlimit:10;" d="M251.338,411.389
					c0,0-0.196,9.711-6.592,13.869"/>
				<path style="fill:none;stroke:#263238;stroke-linecap:round;stroke-linejoin:round;stroke-miterlimit:10;" d="M255.788,412.632
					c0,0,1.678,8.246-5.186,13.279"/>
			</g>
			<g>
				<g>
					<defs>
						<path id="XMLID_610_" d="M228.273,401.353c-2.236,15.106-25.53,31.525-25.53,31.525s-6.456-6.051-8.58-5.799
							c-2.138,0.251-11.011-0.377-11.011-0.377s-70.191-26.257-78.575-26.397c-5.254-0.084-20.416-4.695-27.92-16.657
							c-4.458-7.099-6.204-16.797-1.593-29.667c7.602-21.226,45.066-5.59,81.803,14.701c12.199,6.749,23.029,12.157,31.777,16.28
							c14.547,6.847,23.392,10.145,23.392,10.145l4.863-1.733L228.273,401.353z"/>
					</defs>
					<use xlink:href="#XMLID_610_"  style="overflow:visible;fill:#92E3A9;"/>
					<clipPath id="XMLID_00000177480424705728387170000006856733588239102359_">
						<use xlink:href="#XMLID_610_"  style="overflow:visible;"/>
					</clipPath>
					<path style="opacity:0.2;clip-path:url(#XMLID_00000177480424705728387170000006856733588239102359_);" d="M228.273,401.353
						c-2.236,15.106-25.53,31.525-25.53,31.525s-6.456-6.051-8.58-5.799c-2.138,0.251-11.011-0.377-11.011-0.377
						s-70.191-26.257-78.575-26.397c-5.254-0.084-20.416-4.695-27.92-16.657c8.817,0.657,23.826,2.124,30.98,4.807
						c0,0-8.007,1.984-5.799,3.913c2.208,1.942,34.32,5.701,45.625,2.851c10.215-2.571,30.617-9.516,41.181-10.257
						c14.547,6.847,23.392,10.145,23.392,10.145l4.863-1.733L228.273,401.353z"/>
					
						<use xlink:href="#XMLID_610_"  style="overflow:visible;fill:none;stroke:#263238;stroke-linecap:round;stroke-linejoin:round;stroke-miterlimit:10;"/>
				</g>
				<path style="fill:none;stroke:#263238;stroke-linecap:round;stroke-linejoin:round;stroke-miterlimit:10;" d="M166.142,386.751
					c2.488-0.429,4.961-0.944,7.403-1.585"/>
				<path style="fill:none;stroke:#263238;stroke-linecap:round;stroke-linejoin:round;stroke-miterlimit:10;" d="M99.695,388.083
					c20.334,1.626,41.265,2.091,61.514-0.584"/>
			</g>
			<g>
				<path style="fill:#92E3A9;stroke:#263238;stroke-linecap:round;stroke-linejoin:round;stroke-miterlimit:10;" d="M98.23,416.212
					l-3.195,3.636c0,0-2.981,6.821,5.288,15.171c8.269,8.35,29.778,10.035,38.142,8.548l5.271,0.711l17.927-3.849
					c0,0,9.078-4.443,5.372-12.234C163.328,420.406,98.23,416.212,98.23,416.212z"/>
				<path style="fill:#757575;stroke:#263238;stroke-linecap:round;stroke-linejoin:round;stroke-miterlimit:10;" d="
					M147.597,406.582c0,0-14.948,2.877-18.052,3.61c-13.896,3.283-20.591-0.095-28.086,3.126c-5.939,2.552-6.027,11.755,2.271,20.41
					c6.93,7.228,29.136,8.669,38.403,6.562c3.888-0.884,23.602-1.224,26.247-9.542C171.024,422.429,147.597,406.582,147.597,406.582
					z"/>
				<path style="fill:none;stroke:#263238;stroke-linecap:round;stroke-linejoin:round;stroke-miterlimit:10;" d="M151.844,416.747
					c0,0-23.007,6.941-27.322,6.494c-4.314-0.447-4.848,3.086-4.848,3.086"/>
				<path style="fill:none;stroke:#263238;stroke-linecap:round;stroke-linejoin:round;stroke-miterlimit:10;" d="M148.156,408.374
					c0,0-25.243,5.405-28.295,6.301c-3.052,0.896-5.59-0.248-5.59-0.248"/>
				<path style="fill:none;stroke:#263238;stroke-linecap:round;stroke-linejoin:round;stroke-miterlimit:10;" d="M143.479,408.799
					c0,0,0.167,7.56,7.977,11.553"/>
				<path style="fill:none;stroke:#263238;stroke-linecap:round;stroke-linejoin:round;stroke-miterlimit:10;" d="M138.752,409.661
					c0,0,0.357,7.45,6.687,12.205"/>
				<path style="fill:none;stroke:#263238;stroke-linecap:round;stroke-linejoin:round;stroke-miterlimit:10;" d="M133.726,411.386
					c0,0-1.362,7.382,6.487,12.813"/>
				<path style="fill:none;stroke:#263238;stroke-linecap:round;stroke-linejoin:round;stroke-miterlimit:10;" d="M128.424,411.976
					c0,0-1.189,9.303,6.387,14.072"/>
				<path style="fill:none;stroke:#263238;stroke-linecap:round;stroke-linejoin:round;stroke-miterlimit:10;" d="M122.756,412.787
					c0,0,0.196,9.711,6.592,13.869"/>
				<path style="fill:none;stroke:#263238;stroke-linecap:round;stroke-linejoin:round;stroke-miterlimit:10;" d="M118.305,414.029
					c0,0-1.678,8.246,5.186,13.279"/>
			</g>
			<g>
				<path style="fill:#92E3A9;stroke:#263238;stroke-linecap:round;stroke-linejoin:round;stroke-miterlimit:10;" d="
					M297.568,353.836c-7.648-21.216-45.079-5.509-81.77,14.857c-32.441,18.008-55.125,26.526-55.125,26.526l-4.859-1.721
					l-11.364,8.008c2.258,15.101,25.597,31.47,25.597,31.47s6.435-6.065,8.568-5.818c2.134,0.247,10.998-0.398,10.998-0.398
					s70.152-26.394,78.529-26.539C276.521,400.077,310.023,388.387,297.568,353.836z"/>
				<path style="fill:none;stroke:#263238;stroke-linecap:round;stroke-linejoin:round;stroke-miterlimit:10;" d="M195.775,408.349
					c2.029,0.145,4.063,0.221,6.097,0.235"/>
				<path style="fill:none;stroke:#263238;stroke-linecap:round;stroke-linejoin:round;stroke-miterlimit:10;" d="M160.674,395.22
					c7.328,7.785,19.366,11.159,29.549,12.556"/>
				<path style="fill:none;stroke:#263238;stroke-linecap:round;stroke-linejoin:round;stroke-miterlimit:10;" d="M243.242,381.458
					c14.346,2.736,30.311,5.232,44.747,1.858"/>
				<path style="fill:none;stroke:#263238;stroke-linecap:round;stroke-linejoin:round;stroke-miterlimit:10;" d="M232.229,379.056
					c2.026,0.513,4.064,0.974,6.107,1.411"/>
			</g>
		</g>
		<path style="fill:#263238;" d="M200.3,216.03c-0.21,1.45-0.41,2.87-0.56,4.22c-3.74,3.83-9.95,9.1-16.01,9.28
			c-4.39,0.13-9.02-1.75-12.74-3.82c0.1-0.35,0.18-0.72,0.24-1.09c0.43-2.59-0.26-6.96-1.26-11.35L200.3,216.03z"/>
		<g>
			<g>
				<path style="fill:#FFFFFF;stroke:#263238;stroke-linecap:round;stroke-linejoin:round;stroke-miterlimit:10;" d="
					M210.014,191.78c0,0,2.73-2.566,4.071-1.723c1.341,0.844,2.925,3.235,2.194,5.415c-0.731,2.18-3.9,5.978-4.144,8.193
					c-0.244,2.215-1.887,4.725-3.686,3.259C206.65,205.459,210.014,191.78,210.014,191.78z"/>
				<path style="fill:#FFFFFF;stroke:#263238;stroke-linecap:round;stroke-linejoin:round;stroke-miterlimit:10;" d="M161.38,191.78
					c0,0-2.73-2.566-4.071-1.723c-1.341,0.844-2.925,3.235-2.194,5.415c0.731,2.18,3.9,5.978,4.144,8.193
					c0.244,2.215,1.887,4.725,3.686,3.259S161.38,191.78,161.38,191.78z"/>
			</g>
			<path style="fill:#FFFFFF;stroke:#263238;stroke-linecap:round;stroke-linejoin:round;stroke-miterlimit:10;" d="
				M185.101,156.698c35.498,0,25.894,42.922,19.362,58.1c-2.294,5.33-13.615,12.801-19.362,12.801
				c-5.346,0-16.035-7.037-18.204-12.045C160.289,200.301,151.265,156.698,185.101,156.698z"/>
			<g>
				<path style="fill:none;stroke:#263238;stroke-linecap:round;stroke-linejoin:round;stroke-miterlimit:10;" d="M191.118,191.478
					c0,0,9.245-2.857,12.102,2.857"/>
				<path style="fill:#263238;" d="M197.962,199.252c0,1.091-0.554,1.975-1.237,1.975c-0.683,0-1.237-0.884-1.237-1.975
					c0-1.091,0.554-1.975,1.237-1.975C197.408,197.277,197.962,198.161,197.962,199.252z"/>
				<path style="fill:none;stroke:#263238;stroke-linecap:round;stroke-linejoin:round;stroke-miterlimit:10;" d="M180.276,191.478
					c0,0-9.245-2.857-12.102,2.857"/>
				<path style="fill:#263238;" d="M173.432,199.252c0,1.091,0.554,1.975,1.237,1.975s1.237-0.884,1.237-1.975
					c0-1.091-0.554-1.975-1.237-1.975S173.432,198.161,173.432,199.252z"/>
			</g>
			<path style="fill:#FFFFFF;stroke:#263238;stroke-linecap:round;stroke-linejoin:round;stroke-miterlimit:10;" d="
				M181.532,207.362c-1.345,1.429,3.296,3.782,4.169,3.782c0.873,0,4.403-1.849,4.403-2.942"/>
			<path style="fill:#263238;" d="M199.836,168.786c0,0-12.732,4.79-27.355,0c0,0-4.79-0.28-6.681,2.129
				c-1.891,2.409,0,9.847,0.504,12.872c0.504,3.025-4.16,5.126-3.53,12.774l-0.63,2.889c0,0-5.168-13.142-3.908-23.732
				c1.261-10.589,6.933-14.119,6.933-14.119s3.047-9.145,20.91-9.077c19.252,0.074,21.195,10.495,21.195,10.495
				s11.976,9.045,2.32,37.409l-1.017-3.866c0,0,1.017-5.715-2.437-10.757c-1.682-2.454,1.008-9.833,0.378-13.615
				C205.887,168.408,199.836,168.786,199.836,168.786z"/>
			<path style="fill:#FFFFFF;stroke:#263238;stroke-linecap:round;stroke-linejoin:round;stroke-miterlimit:10;" d="
				M177.989,214.621c0,0,3.194,1.677,7.708,1.677c4.514,0,7.37-1.244,7.37-1.244"/>
			<path style="fill:#263238;" d="M199.056,172.165c0,0,1.14,6.265,4.163,11.056c3.023,4.791,6.542,5.275,7.547,11.114
				c0,0,9.217-15.536,1.426-29.172c0,0-2.447-15.479-26.495-15.479s-35.166,16.749-25.83,42.465c0,0,7.462-2.846,8.307-11.323
				c0,0,1.03,4.949-2.471,9.938c0,0,12.378-1.83,15.587-12.149c0,0-1.248,6.86-5.383,9.766c0,0,4.673,5.897,10.042-3.317
				C191.317,175.851,194.449,170.323,199.056,172.165z"/>
			<path style="opacity:0.2;fill:none;stroke:#FFFFFF;stroke-linecap:round;stroke-linejoin:round;stroke-miterlimit:10;" d="
				M180.091,174.178c-1.502,2.148-3.611,5.473-6.659,5.151"/>
			<path style="opacity:0.2;fill:none;stroke:#FFFFFF;stroke-linecap:round;stroke-linejoin:round;stroke-miterlimit:10;" d="
				M197.962,165.252c-4.049-8.241-12.834,1.853-15.704,5.842"/>
			<path style="opacity:0.2;fill:none;stroke:#FFFFFF;stroke-linecap:round;stroke-linejoin:round;stroke-miterlimit:10;" d="
				M164.079,167.077c-1.016,0.867-2.15,1.607-3.452,1.952"/>
			<path style="opacity:0.2;fill:none;stroke:#FFFFFF;stroke-linecap:round;stroke-linejoin:round;stroke-miterlimit:10;" d="
				M193.067,157.555c-8.166-8.542-19.747,1.398-26.215,7.089"/>
			<path style="opacity:0.2;fill:none;stroke:#FFFFFF;stroke-linecap:round;stroke-linejoin:round;stroke-miterlimit:10;" d="
				M209.568,167.285c1.473,2.148,2.215,4.726,2.624,7.273"/>
			<path style="opacity:0.2;fill:none;stroke:#FFFFFF;stroke-linecap:round;stroke-linejoin:round;stroke-miterlimit:10;" d="
				M203.22,163.699c1.293-0.054,2.583,0.341,3.683,1.011"/>
			<path style="opacity:0.2;fill:none;stroke:#FFFFFF;stroke-linecap:round;stroke-linejoin:round;stroke-miterlimit:10;" d="
				M200.736,159.396c0,0,1.771-4.682,5.336-1.253"/>
		</g>
	</g>
</g>
<g id="Progress">
	<g>
		<path style="fill:none;stroke:#FFFFFF;stroke-linecap:round;stroke-linejoin:round;stroke-miterlimit:10;" d="M215.714,288.802
			h-57.22c-2.65,0-4.799-2.148-4.799-4.799v0c0-2.65,2.148-4.799,4.799-4.799h57.22c2.65,0,4.799,2.148,4.799,4.799v0
			C220.513,286.653,218.365,288.802,215.714,288.802z"/>
		<g>
			<path style="fill:#FFFFFF;" d="M180.175,281.832c0.704,0,0.861-0.34,1.003-0.729h0.613v5.8h-0.912v-4.425h-0.704V281.832z"/>
			<path style="fill:#FFFFFF;" d="M182.817,282.494c0-0.928,0.489-1.458,1.384-1.458c0.895,0,1.384,0.53,1.384,1.458v3.017
				c0,0.928-0.489,1.458-1.384,1.458c-0.895,0-1.384-0.53-1.384-1.458V282.494z M183.729,285.569c0,0.414,0.182,0.571,0.472,0.571
				c0.29,0,0.472-0.157,0.472-0.571v-3.132c0-0.414-0.182-0.571-0.472-0.571c-0.29,0-0.472,0.157-0.472,0.571V285.569z"/>
			<path style="fill:#FFFFFF;" d="M186.097,282.494c0-0.928,0.489-1.458,1.384-1.458c0.895,0,1.384,0.53,1.384,1.458v3.017
				c0,0.928-0.489,1.458-1.384,1.458c-0.895,0-1.384-0.53-1.384-1.458V282.494z M187.009,285.569c0,0.414,0.182,0.571,0.472,0.571
				c0.29,0,0.472-0.157,0.472-0.571v-3.132c0-0.414-0.182-0.571-0.472-0.571c-0.29,0-0.472,0.157-0.472,0.571V285.569z"/>
			<path style="fill:#FFFFFF;" d="M189.402,281.99c0-0.597,0.307-0.928,0.878-0.928c0.571,0,0.878,0.331,0.878,0.928v1.905
				c0,0.597-0.307,0.928-0.878,0.928c-0.572,0-0.878-0.331-0.878-0.928V281.99z M189.982,283.937c0,0.257,0.107,0.364,0.298,0.364
				c0.182,0,0.298-0.107,0.298-0.364v-1.989c0-0.257-0.116-0.364-0.298-0.364c-0.191,0-0.298,0.107-0.298,0.364V283.937z
				 M192.567,281.103h0.539l-2.287,5.8h-0.539L192.567,281.103z M192.277,284.111c0-0.597,0.307-0.928,0.878-0.928
				c0.572,0,0.878,0.331,0.878,0.928v1.905c0,0.597-0.306,0.928-0.878,0.928c-0.572,0-0.878-0.331-0.878-0.928V284.111z
				 M192.857,286.058c0,0.257,0.108,0.364,0.298,0.364c0.182,0,0.298-0.107,0.298-0.364v-1.989c0-0.257-0.116-0.364-0.298-0.364
				c-0.19,0-0.298,0.107-0.298,0.364V286.058z"/>
		</g>
	</g>
</g>
<g id="Bubble">
	<g>
		
			<ellipse transform="matrix(0.5832 -0.8123 0.8123 0.5832 -73.7775 158.479)" style="fill:none;stroke:#263238;stroke-linecap:round;stroke-linejoin:round;stroke-miterlimit:10;" cx="117.543" cy="151.133" rx="28.104" ry="28.104"/>
		<path style="fill:none;stroke:#263238;stroke-linecap:round;stroke-linejoin:round;stroke-miterlimit:10;" d="M139.215,129.015
			c-11.386-11.182-29.641-11.927-41.925-1.304"/>
		<path style="fill:none;stroke:#263238;stroke-linecap:round;stroke-linejoin:round;stroke-miterlimit:10;" d="M146.372,162.426
			c4.05-10.356,2.372-22.55-5.408-31.546"/>
		<path style="fill:none;stroke:#263238;stroke-linecap:round;stroke-linejoin:round;stroke-miterlimit:10;" d="M139.745,179.976
			l5.645,3.359l-4.778-11.558c0.791-0.882,1.523-1.8,2.197-2.749"/>
		<path style="fill:none;stroke:#263238;stroke-linecap:round;stroke-linejoin:round;stroke-miterlimit:10;" d="M97.289,174.559
			c10.456,9.062,25.793,10.061,37.353,2.381l2.781,1.655"/>
		<path style="fill:none;stroke:#263238;stroke-linecap:round;stroke-linejoin:round;stroke-miterlimit:10;" d="M88.782,139.645
			c-4.143,10.398-2.488,22.69,5.339,31.742"/>
		<path style="fill:none;stroke:#263238;stroke-linecap:round;stroke-linejoin:round;stroke-miterlimit:10;" d="M91.917,133.74
			c-0.684,1.006-1.302,2.045-1.856,3.11"/>
		<g>
			<path style="fill:none;stroke:#263238;stroke-linecap:round;stroke-linejoin:round;stroke-miterlimit:10;" d="M112.494,161.245
				l-9.715-9.351c-0.903-0.869-0.93-2.305-0.061-3.208c0.868-0.903,2.305-0.93,3.208-0.061"/>
			<path style="fill:none;stroke:#263238;stroke-linecap:round;stroke-linejoin:round;stroke-miterlimit:10;" d="M128.573,139.066
				c0.697-1.041,2.106-1.322,3.148-0.624c1.041,0.697,1.321,2.106,0.624,3.148l-14.266,21.329c-0.373,0.558-0.975,0.922-1.643,0.994
				c-0.067,0.007-0.134,0.011-0.2,0.013c-0.599,0.011-1.181-0.215-1.617-0.634"/>
			<polyline style="fill:none;stroke:#263238;stroke-linecap:round;stroke-linejoin:round;stroke-miterlimit:10;" points="
				108.145,150.761 115.814,158.143 126.704,141.86 			"/>
		</g>
	</g>
</g>
<g id="Folder">
	<g>
		<g>
			<g>
				<defs>
					<path id="XMLID_613_" d="M407.03,152.602c0,0-13.957-1.552-22.573-16.921c-8.616-15.369-54.592-10.319-54.592-10.319
						s0.265,5.383,7.386,6.769l-4.967,2.397c0,0,1.454,6.158,14.493,5.616l-3.537,3.812c0,0,5.477,4.477,19.22,2.509l-2.591,3.333
						c0,0,6.425,4.472,17.317,1.333l-1.17,3.089c0,0,8.268,0.597,13.135-1.526C389.151,152.694,398.569,158.498,407.03,152.602z"/>
				</defs>
				<use xlink:href="#XMLID_613_"  style="overflow:visible;fill:#FFFFFF;"/>
				<clipPath id="XMLID_00000183217795622502838220000009297384365975730104_">
					<use xlink:href="#XMLID_613_"  style="overflow:visible;"/>
				</clipPath>
				<path style="opacity:0.4;clip-path:url(#XMLID_00000183217795622502838220000009297384365975730104_);fill:#92E3A9;" d="
					M407.031,152.606c-8.46,5.894-17.88,0.092-17.88,0.092c-4.869,2.115-13.132,1.528-13.132,1.528l1.164-3.096
					c-10.894,3.146-17.317-1.331-17.317-1.331l2.593-3.333c-13.74,1.971-19.223-2.511-19.223-2.511l3.54-3.808
					c-13.037,0.537-14.489-5.615-14.489-5.615l4.968-2.396c-7.127-1.393-7.395-6.772-7.395-6.772s2.614,4.647,10.133,4.498
					c0,0-1.264,3.137,6.439,3.717c0,0,6.504,2.777,11.224,0.702c0,0,1.587,3.222,7.244,2.673l-1.917,2.53
					c0,0,0.587,3.317,7.599,1.671l-1.023,3.255c0,0,2.304,2.668,11.324,0.682c0,0-2.821,1.845-1.896,2.78
					c0.925,0.935,3.777,1.391,6.236,1.148C385.223,149.018,394.852,156.609,407.031,152.606z"/>
				
					<use xlink:href="#XMLID_613_"  style="overflow:visible;fill:none;stroke:#263238;stroke-linecap:round;stroke-linejoin:round;stroke-miterlimit:10;"/>
			</g>
			<path style="fill:#FFFFFF;stroke:#263238;stroke-linecap:round;stroke-linejoin:round;stroke-miterlimit:10;" d="M347.4,128.285
				c-4.631,1.17-7.426,0.791-10.868,2.546c0,0,3.038,4.1,10.9,3.546"/>
			<path style="fill:none;stroke:#263238;stroke-linecap:round;stroke-linejoin:round;stroke-miterlimit:10;" d="M350.921,135.96
				c-2.606,0.46-5.816,1.822-5.816,1.822s1.134,5.329,13.649,2.774"/>
			<path style="fill:none;stroke:#263238;stroke-linecap:round;stroke-linejoin:round;stroke-miterlimit:10;" d="M363.624,142.342
				l-3.663,2.358c0,0,6.417,2.887,13.402,0.954"/>
			<path style="fill:#FFFFFF;stroke:#263238;stroke-linecap:round;stroke-linejoin:round;stroke-miterlimit:10;" d="
				M376.959,145.786c0,0-3.583,2.521-3.462,2.876c0.12,0.355,7.169,2.996,13.553-0.476"/>
			<path style="fill:#FFFFFF;stroke:#263238;stroke-linecap:round;stroke-linejoin:round;stroke-miterlimit:10;" d="
				M355.023,129.787c-2.194,0.95-8.685,1.942-9.114,2.892c0,0,2.125,5.945,13.024,2.592"/>
			<path style="fill:#FFFFFF;stroke:#263238;stroke-linecap:round;stroke-linejoin:round;stroke-miterlimit:10;" d="
				M362.291,136.717c-2.879,1.189-4.61,2.66-4.61,2.66s4.219,5.867,14.469,0.804"/>
			<path style="fill:#FFFFFF;stroke:#263238;stroke-linecap:round;stroke-linejoin:round;stroke-miterlimit:10;" d="
				M373.453,140.174c-3.115,1.43-3.891,4.24-3.891,4.24s5.062,3.276,13.753-0.133"/>
			<path style="fill:#FFFFFF;stroke:#263238;stroke-linecap:round;stroke-linejoin:round;stroke-miterlimit:10;" d="
				M364.004,131.815c0,0-6.184,1.324-6.35,2.463c0,0,4.962,4.27,12.907,2.124"/>
			<path style="fill:#FFFFFF;stroke:#263238;stroke-linecap:round;stroke-linejoin:round;stroke-miterlimit:10;" d="
				M371.495,135.854c-1.459,0.653-2.44,2.041-2.44,2.041s2.39,3.545,8.545,1.616"/>
		</g>
		<g>
			<defs>
				<path id="XMLID_614_" d="M413.991,131.113l-4.844,1.668l-2.313-4.848c-0.245-0.514-0.816-0.751-1.358-0.564l-16.458,5.669
					c-0.542,0.187-0.902,0.744-0.856,1.326l0.431,5.496l-27.489,9.469c-1.312,0.452-2.085,1.912-1.727,3.262l11.101,41.844
					c0.358,1.35,1.712,2.077,3.024,1.625l52.888-18.218c1.312-0.452,2.085-1.912,1.727-3.262l-11.101-41.844
					C416.657,131.389,415.303,130.661,413.991,131.113z"/>
			</defs>
			<use xlink:href="#XMLID_614_"  style="overflow:visible;fill:#92E3A9;"/>
			<clipPath id="XMLID_00000145020424894106078480000016384872929308918406_">
				<use xlink:href="#XMLID_614_"  style="overflow:visible;"/>
			</clipPath>
			<path style="opacity:0.2;clip-path:url(#XMLID_00000145020424894106078480000016384872929308918406_);" d="M413.991,131.113
				l-4.844,1.668l-2.313-4.848c-0.245-0.514-0.816-0.751-1.358-0.564l-16.458,5.669c-0.542,0.187-0.902,0.744-0.856,1.326
				l0.431,5.496l-27.489,9.469c-1.312,0.452-2.085,1.912-1.727,3.262l11.101,41.844c0.358,1.35,1.712,2.077,3.024,1.625
				l52.888-18.218c1.312-0.452,2.085-1.912,1.727-3.262l-11.101-41.844C416.657,131.389,415.303,130.661,413.991,131.113z"/>
			
				<use xlink:href="#XMLID_614_"  style="overflow:visible;fill:none;stroke:#263238;stroke-linecap:round;stroke-linejoin:round;stroke-miterlimit:10;"/>
		</g>
		<g>
			<defs>
				<path id="XMLID_615_" d="M426.081,177.889l-52.89,18.219c-1.314,0.453-2.874-0.205-3.477-1.467l-0.258-0.535l-12.481-25.823
					l-6.174-12.765c-0.604-1.262-0.036-2.653,1.269-3.102l52.89-18.219c1.314-0.453,2.874,0.205,3.478,1.467l18.913,39.123
					C427.963,176.046,427.395,177.436,426.081,177.889z"/>
			</defs>
			<use xlink:href="#XMLID_615_"  style="overflow:visible;fill:#92E3A9;"/>
			<clipPath id="XMLID_00000016770111467161068400000004523821741507189918_">
				<use xlink:href="#XMLID_615_"  style="overflow:visible;"/>
			</clipPath>
			<path style="opacity:0.2;clip-path:url(#XMLID_00000016770111467161068400000004523821741507189918_);" d="M388.305,168.627
				c0,0-0.557,11.71-13.021,14.121c0,0-1.162,5.562-5.829,11.358l-12.481-25.823C367.533,170.103,379.645,171.124,388.305,168.627z"
				/>
			
				<use xlink:href="#XMLID_615_"  style="overflow:visible;fill:none;stroke:#263238;stroke-linecap:round;stroke-linejoin:round;stroke-miterlimit:10;"/>
		</g>
		<g>
			<g>
				<defs>
					<path id="XMLID_612_" d="M388.302,168.625c0,0-13.718,3.008-26.808-8.785c-13.091-11.792-55.017,7.74-55.017,7.74
						s1.978,5.013,9.167,4.042l-3.936,3.864c0,0,3.353,5.366,15.529,0.67l-2.127,4.745c0,0,6.624,2.483,19.009-3.789l-1.385,3.988
						c0,0,7.521,2.174,16.829-4.292l-0.117,3.301c0,0,8.022-2.087,11.951-5.66C371.397,174.448,382.18,176.923,388.302,168.625z"/>
				</defs>
				<use xlink:href="#XMLID_612_"  style="overflow:visible;fill:#FFFFFF;"/>
				<clipPath id="XMLID_00000067219054059840611790000006052339194248071811_">
					<use xlink:href="#XMLID_612_"  style="overflow:visible;"/>
				</clipPath>
				<path style="opacity:0.4;clip-path:url(#XMLID_00000067219054059840611790000006052339194248071811_);fill:#92E3A9;" d="
					M388.305,168.627c-6.122,8.296-16.905,5.823-16.905,5.823c-3.933,3.565-11.948,5.66-11.948,5.66l0.109-3.306
					c-9.309,6.475-16.829,4.295-16.829,4.295l1.386-3.989c-12.381,6.275-19.013,3.789-19.013,3.789l2.132-4.743
					c-12.176,4.691-15.525-0.67-15.525-0.67l3.936-3.863c-7.198,0.967-9.177-4.042-9.177-4.042s3.967,3.562,11.041,1.009
					c0,0-0.191,3.376,7.291,1.455c0,0,7.051,0.543,10.856-2.936c0,0,2.536,2.543,7.718,0.208l-1.004,3.011
					c0,0,1.62,2.953,7.733-0.855l0.075,3.411c0,0,3.038,1.788,10.944-2.987c0,0-2.08,2.652-0.904,3.241
					c1.176,0.589,4.024,0.105,6.275-0.913C366.497,172.226,378.053,176.326,388.305,168.627z"/>
				
					<use xlink:href="#XMLID_612_"  style="overflow:visible;fill:none;stroke:#263238;stroke-linecap:round;stroke-linejoin:round;stroke-miterlimit:10;"/>
			</g>
			<path style="fill:#FFFFFF;stroke:#263238;stroke-linecap:round;stroke-linejoin:round;stroke-miterlimit:10;" d="
				M324.023,164.722c-4.011,2.594-6.78,3.132-9.477,5.898c0,0,4.193,2.909,11.461-0.139"/>
			<path style="fill:none;stroke:#263238;stroke-linecap:round;stroke-linejoin:round;stroke-miterlimit:10;" d="M329.819,170.862
				c-2.321,1.271-4.924,3.591-4.924,3.591s2.784,4.684,13.817-1.751"/>
			<path style="fill:none;stroke:#263238;stroke-linecap:round;stroke-linejoin:round;stroke-miterlimit:10;" d="M343.899,172.832
				l-2.713,3.408c0,0,7.004,0.675,13-3.396"/>
			<path style="fill:#FFFFFF;stroke:#263238;stroke-linecap:round;stroke-linejoin:round;stroke-miterlimit:10;" d="
				M357.634,171.815c0,0-2.585,3.537-2.357,3.834s7.751,0.537,12.684-4.799"/>
			<path style="fill:#FFFFFF;stroke:#263238;stroke-linecap:round;stroke-linejoin:round;stroke-miterlimit:10;" d="
				M331.724,163.699c-1.773,1.603-7.603,4.625-7.705,5.664c0,0,3.92,4.949,13.167-1.724"/>
			<path style="fill:#FFFFFF;stroke:#263238;stroke-linecap:round;stroke-linejoin:round;stroke-miterlimit:10;" d="
				M340.831,167.931c-2.345,2.05-3.513,3.998-3.513,3.998s5.879,4.203,13.962-3.88"/>
			<path style="fill:#FFFFFF;stroke:#263238;stroke-linecap:round;stroke-linejoin:round;stroke-miterlimit:10;" d="
				M352.513,167.625c-2.491,2.353-2.325,5.264-2.325,5.264s5.846,1.479,12.983-4.538"/>
			<path style="fill:#FFFFFF;stroke:#263238;stroke-linecap:round;stroke-linejoin:round;stroke-miterlimit:10;" d="
				M340.882,162.739c0,0-5.433,3.238-5.224,4.37c0,0,6.07,2.453,12.906-2.129"/>
			<path style="fill:#FFFFFF;stroke:#263238;stroke-linecap:round;stroke-linejoin:round;stroke-miterlimit:10;" d="
				M349.272,164.161c-1.172,1.087-1.656,2.716-1.656,2.716s3.4,2.591,8.611-1.211"/>
		</g>
	</g>
	<g>
		<g>
			<path style="fill:none;stroke:#263238;stroke-width:2;stroke-linecap:round;stroke-linejoin:round;" d="M281.325,310.929
				c1.188-0.402,2.444-0.858,3.755-1.37"/>
			
				<path style="fill:none;stroke:#263238;stroke-width:2;stroke-linecap:round;stroke-linejoin:round;stroke-dasharray:7.9029,4.9393;" d="
				M289.632,307.65c22.563-10.104,55.599-34.296,48.484-73.681c-5.852-32.394-32.646-29.512-40.704-22.83
				c-13.675,11.341-15.747,38.031,4.04,43.577c32.796,9.193,57.727-31.757,65.879-47.337"/>
			<path style="fill:none;stroke:#263238;stroke-width:2;stroke-linecap:round;stroke-linejoin:round;" d="M368.459,205.177
				c1.134-2.262,1.726-3.604,1.726-3.604"/>
		</g>
	</g>
</g>
</svg>
