<svg width="272" height="193" viewBox="0 0 272 193" fill="none" xmlns="http://www.w3.org/2000/svg">
<line x1="23.666" y1="177.322" x2="248.333" y2="177.322" stroke="#EBEBEB" stroke-width="2" stroke-linecap="round"/>
<rect width="29.2968" height="100.508" rx="4" transform="matrix(0.971112 -0.23931 0.279771 0.960261 40.6582 33.125)" fill="#FFAB00"/>
<path d="M66.6797 120.818L70.1691 119.945" stroke="#C28200" stroke-width="2" stroke-miterlimit="16" stroke-linecap="round"/>
<path d="M64.75 114.09L72.5108 112.147" stroke="#C28200" stroke-width="2" stroke-miterlimit="16" stroke-linecap="round"/>
<path d="M62.8203 107.359L66.3097 106.486" stroke="#C28200" stroke-width="2" stroke-miterlimit="16" stroke-linecap="round"/>
<path d="M60.8906 100.631L68.6514 98.6875" stroke="#C28200" stroke-width="2" stroke-miterlimit="16" stroke-linecap="round"/>
<path d="M58.9609 93.9023L62.4503 93.0286" stroke="#C28200" stroke-width="2" stroke-miterlimit="16" stroke-linecap="round"/>
<path d="M57.0312 87.1719L64.792 85.2285" stroke="#C28200" stroke-width="2" stroke-miterlimit="16" stroke-linecap="round"/>
<path d="M55.1035 80.4434L58.5929 79.5696" stroke="#C28200" stroke-width="2" stroke-miterlimit="16" stroke-linecap="round"/>
<path d="M53.1738 73.7129L60.9346 71.7696" stroke="#C28200" stroke-width="2" stroke-miterlimit="16" stroke-linecap="round"/>
<path d="M51.2441 66.9844L54.7335 66.1106" stroke="#C28200" stroke-width="2" stroke-miterlimit="16" stroke-linecap="round"/>
<path d="M49.3145 60.2559L57.0753 58.3125" stroke="#C28200" stroke-width="2" stroke-miterlimit="16" stroke-linecap="round"/>
<path d="M47.3848 53.5254L50.8742 52.6516" stroke="#C28200" stroke-width="2" stroke-miterlimit="16" stroke-linecap="round"/>
<path d="M45.4551 46.7969L53.2159 44.8535" stroke="#C28200" stroke-width="2" stroke-miterlimit="16" stroke-linecap="round"/>
<path d="M43.5254 40.0664L47.0148 39.1927" stroke="#C28200" stroke-width="2" stroke-miterlimit="16" stroke-linecap="round"/>
<rect width="126.74" height="108.294" rx="4" transform="matrix(0.993686 0.113871 -0.149584 0.988983 79.4414 21.1602)" fill="#6BDEEF"/>
<rect width="109.758" height="100.994" rx="4" transform="matrix(0.993686 0.113866 -0.14959 0.988982 86.8398 29.2637)" fill="white"/>
<circle cx="2" cy="2" r="2" transform="matrix(0.99279 0.120025 -0.141917 0.989899 87.0742 35.6953)" fill="#6BDEEF"/>
<circle cx="2" cy="2" r="2" transform="matrix(0.99279 0.120025 -0.141917 0.989899 85.3711 47.5742)" fill="#6BDEEF"/>
<circle cx="2" cy="2" r="2" transform="matrix(0.99279 0.120025 -0.141917 0.989899 83.668 59.4531)" fill="#6BDEEF"/>
<circle cx="2" cy="2" r="2" transform="matrix(0.99279 0.120025 -0.141917 0.989899 81.9648 71.332)" fill="#6BDEEF"/>
<circle cx="2" cy="2" r="2" transform="matrix(0.99279 0.120025 -0.141917 0.989899 80.2617 83.2109)" fill="#6BDEEF"/>
<circle cx="2" cy="2" r="2" transform="matrix(0.99279 0.120025 -0.141917 0.989899 78.5586 95.0898)" fill="#6BDEEF"/>
<circle cx="2" cy="2" r="2" transform="matrix(0.99279 0.120025 -0.141917 0.989899 76.8555 106.969)" fill="#6BDEEF"/>
<circle cx="2" cy="2" r="2" transform="matrix(0.99279 0.120025 -0.141917 0.989899 75.1523 118.848)" fill="#6BDEEF"/>
<path d="M84.8184 41.6016L194.178 54.1414" stroke="#DBDBDB" stroke-width="2" stroke-miterlimit="16" stroke-linecap="square"/>
<path d="M83.0254 53.4688L192.385 66.0085" stroke="#DBDBDB" stroke-width="2" stroke-miterlimit="16" stroke-linecap="square"/>
<path d="M81.2305 65.3379L190.59 77.8777" stroke="#DBDBDB" stroke-width="2" stroke-miterlimit="16" stroke-linecap="square"/>
<path d="M79.4375 77.2051L188.797 89.7449" stroke="#DBDBDB" stroke-width="2" stroke-miterlimit="16" stroke-linecap="square"/>
<path d="M77.6426 89.0742L187.002 101.614" stroke="#DBDBDB" stroke-width="2" stroke-miterlimit="16" stroke-linecap="square"/>
<path d="M75.8496 100.941L185.209 113.481" stroke="#DBDBDB" stroke-width="2" stroke-miterlimit="16" stroke-linecap="square"/>
<path d="M74.0547 112.809L183.415 125.348" stroke="#DBDBDB" stroke-width="2" stroke-miterlimit="16" stroke-linecap="square"/>
<path d="M72.2617 124.678L181.622 137.218" stroke="#DBDBDB" stroke-width="2" stroke-miterlimit="16" stroke-linecap="square"/>
<path d="M87.6133 37.5254L82.6587 36.9311" stroke="#008392" stroke-width="2" stroke-miterlimit="16" stroke-linecap="round"/>
<path d="M85.8965 49.4023L80.9419 48.8081" stroke="#008392" stroke-width="2" stroke-miterlimit="16" stroke-linecap="round"/>
<path d="M84.1797 61.2793L79.2251 60.685" stroke="#008392" stroke-width="2" stroke-miterlimit="16" stroke-linecap="round"/>
<path d="M82.4648 73.1562L77.5102 72.562" stroke="#008392" stroke-width="2" stroke-miterlimit="16" stroke-linecap="round"/>
<path d="M80.748 85.0352L75.7934 84.4409" stroke="#008392" stroke-width="2" stroke-miterlimit="16" stroke-linecap="round"/>
<path d="M79.0312 96.9121L74.0766 96.3178" stroke="#008392" stroke-width="2" stroke-miterlimit="16" stroke-linecap="round"/>
<path d="M77.3145 108.789L72.3598 108.195" stroke="#008392" stroke-width="2" stroke-miterlimit="16" stroke-linecap="round"/>
<path d="M75.5996 120.666L70.645 120.072" stroke="#008392" stroke-width="2" stroke-miterlimit="16" stroke-linecap="round"/>
<path d="M185.623 59.6426L222.114 50.4401L218.774 55.8834L224.558 59.0261L188.067 68.2286L185.623 59.6426Z" fill="#FEC3CE"/>
<rect width="37.633" height="114.268" rx="4" transform="matrix(0.969641 0.244531 -0.273816 0.961782 182.762 14.748)" fill="#A3A3F5"/>
<rect width="37.633" height="8.92719" transform="matrix(0.969641 0.244531 -0.273816 0.961782 174.205 44.7988)" fill="#FF8DA6"/>
<path d="M208.305 21.1895L215.373 22.9721C217.515 23.5123 218.761 25.6726 218.157 27.7973L189.059 130.004C188.454 132.129 186.227 133.413 184.085 132.873L177.016 131.09L208.305 21.1895Z" fill="#8888F2"/>
<rect width="11.2899" height="8.92719" transform="matrix(0.969641 0.244531 -0.273816 0.961782 199.748 51.2422)" fill="#F76E88"/>
<path d="M45.332 76.9883H151.11V176.544H53.332C48.9137 176.544 45.332 172.962 45.332 168.544V76.9883Z" fill="#FFDF99"/>
<path d="M45.3327 76.9883H151.11L128.444 98.3216H22.666L45.3327 76.9883Z" fill="#FFEDC1"/>
<rect x="151.111" y="76.9883" width="75.5556" height="99.5556" fill="#FFCC66"/>
<path d="M226.665 76.9883H151.11L173.776 98.3216H249.332L226.665 76.9883Z" fill="#FFDF99"/>
<rect x="167.166" y="165.879" width="59.5" height="10.6667" fill="#26C7D9"/>
<path d="M226.667 165.879V176.546L238 171.212L226.667 165.879Z" fill="#FFEDC1"/>
<path d="M232.333 173.878L238 171.212L232.333 168.545V173.878Z" fill="#222222"/>
<rect width="2.83334" height="10.6667" transform="matrix(-1 0 0 1 167.166 165.879)" fill="white"/>
<path d="M158.666 168.879C158.666 167.222 160.009 165.879 161.666 165.879H164.333V176.546H161.666C160.009 176.546 158.666 175.202 158.666 173.546V168.879Z" fill="#F76E88"/>
<rect x="167.166" y="173.879" width="59.5" height="2.66667" fill="#05B2C7"/>
</svg>
