<svg id="visual" viewBox="0 0 960 300" width="960" height="300" xmlns="http://www.w3.org/2000/svg" xmlns:xlink="http://www.w3.org/1999/xlink" version="1.1"><rect x="0" y="0" width="960" height="300" fill="#071D15"></rect><path d="M0 124L9.3 133.8C18.7 143.7 37.3 163.3 56.2 161.5C75 159.7 94 136.3 112.8 128.5C131.7 120.7 150.3 128.3 169.2 144.2C188 160 207 184 225.8 187.5C244.7 191 263.3 174 282.2 160.5C301 147 320 137 338.8 130.7C357.7 124.3 376.3 121.7 395.2 128.8C414 136 433 153 451.8 151.7C470.7 150.3 489.3 130.7 508.2 130.8C527 131 546 151 564.8 157.3C583.7 163.7 602.3 156.3 621.2 147.8C640 139.3 659 129.7 677.8 131.7C696.7 133.7 715.3 147.3 734.2 144.2C753 141 772 121 790.8 111.8C809.7 102.7 828.3 104.3 847.2 122.7C866 141 885 176 903.8 190.8C922.7 205.7 941.3 200.3 950.7 197.7L960 195L960 301L950.7 301C941.3 301 922.7 301 903.8 301C885 301 866 301 847.2 301C828.3 301 809.7 301 790.8 301C772 301 753 301 734.2 301C715.3 301 696.7 301 677.8 301C659 301 640 301 621.2 301C602.3 301 583.7 301 564.8 301C546 301 527 301 508.2 301C489.3 301 470.7 301 451.8 301C433 301 414 301 395.2 301C376.3 301 357.7 301 338.8 301C320 301 301 301 282.2 301C263.3 301 244.7 301 225.8 301C207 301 188 301 169.2 301C150.3 301 131.7 301 112.8 301C94 301 75 301 56.2 301C37.3 301 18.7 301 9.3 301L0 301Z" fill="#071d15"></path><path d="M0 137L9.3 139.3C18.7 141.7 37.3 146.3 56.2 147.5C75 148.7 94 146.3 112.8 150C131.7 153.7 150.3 163.3 169.2 175.7C188 188 207 203 225.8 195.8C244.7 188.7 263.3 159.3 282.2 145.2C301 131 320 132 338.8 143.5C357.7 155 376.3 177 395.2 192.2C414 207.3 433 215.7 451.8 206.5C470.7 197.3 489.3 170.7 508.2 157.5C527 144.3 546 144.7 564.8 146.5C583.7 148.3 602.3 151.7 621.2 151.7C640 151.7 659 148.3 677.8 153.5C696.7 158.7 715.3 172.3 734.2 172.7C753 173 772 160 790.8 158.7C809.7 157.3 828.3 167.7 847.2 174.2C866 180.7 885 183.3 903.8 175.8C922.7 168.3 941.3 150.7 950.7 141.8L960 133L960 301L950.7 301C941.3 301 922.7 301 903.8 301C885 301 866 301 847.2 301C828.3 301 809.7 301 790.8 301C772 301 753 301 734.2 301C715.3 301 696.7 301 677.8 301C659 301 640 301 621.2 301C602.3 301 583.7 301 564.8 301C546 301 527 301 508.2 301C489.3 301 470.7 301 451.8 301C433 301 414 301 395.2 301C376.3 301 357.7 301 338.8 301C320 301 301 301 282.2 301C263.3 301 244.7 301 225.8 301C207 301 188 301 169.2 301C150.3 301 131.7 301 112.8 301C94 301 75 301 56.2 301C37.3 301 18.7 301 9.3 301L0 301Z" fill="#081f17"></path><path d="M0 171L9.3 165.2C18.7 159.3 37.3 147.7 56.2 147.3C75 147 94 158 112.8 168.2C131.7 178.3 150.3 187.7 169.2 184.3C188 181 207 165 225.8 163C244.7 161 263.3 173 282.2 187.8C301 202.7 320 220.3 338.8 223.5C357.7 226.7 376.3 215.3 395.2 210.7C414 206 433 208 451.8 207.2C470.7 206.3 489.3 202.7 508.2 200.3C527 198 546 197 564.8 196.7C583.7 196.3 602.3 196.7 621.2 187.3C640 178 659 159 677.8 164.7C696.7 170.3 715.3 200.7 734.2 202.5C753 204.3 772 177.7 790.8 163.7C809.7 149.7 828.3 148.3 847.2 146.7C866 145 885 143 903.8 147.7C922.7 152.3 941.3 163.7 950.7 169.3L960 175L960 301L950.7 301C941.3 301 922.7 301 903.8 301C885 301 866 301 847.2 301C828.3 301 809.7 301 790.8 301C772 301 753 301 734.2 301C715.3 301 696.7 301 677.8 301C659 301 640 301 621.2 301C602.3 301 583.7 301 564.8 301C546 301 527 301 508.2 301C489.3 301 470.7 301 451.8 301C433 301 414 301 395.2 301C376.3 301 357.7 301 338.8 301C320 301 301 301 282.2 301C263.3 301 244.7 301 225.8 301C207 301 188 301 169.2 301C150.3 301 131.7 301 112.8 301C94 301 75 301 56.2 301C37.3 301 18.7 301 9.3 301L0 301Z" fill="#092118"></path><path d="M0 195L9.3 192.3C18.7 189.7 37.3 184.3 56.2 188C75 191.7 94 204.3 112.8 212.2C131.7 220 150.3 223 169.2 227.3C188 231.7 207 237.3 225.8 235.3C244.7 233.3 263.3 223.7 282.2 216.8C301 210 320 206 338.8 206.8C357.7 207.7 376.3 213.3 395.2 220.5C414 227.7 433 236.3 451.8 233.3C470.7 230.3 489.3 215.7 508.2 207C527 198.3 546 195.7 564.8 201C583.7 206.3 602.3 219.7 621.2 217.8C640 216 659 199 677.8 188.3C696.7 177.7 715.3 173.3 734.2 180C753 186.7 772 204.3 790.8 205.2C809.7 206 828.3 190 847.2 187.8C866 185.7 885 197.3 903.8 200.8C922.7 204.3 941.3 199.7 950.7 197.3L960 195L960 301L950.7 301C941.3 301 922.7 301 903.8 301C885 301 866 301 847.2 301C828.3 301 809.7 301 790.8 301C772 301 753 301 734.2 301C715.3 301 696.7 301 677.8 301C659 301 640 301 621.2 301C602.3 301 583.7 301 564.8 301C546 301 527 301 508.2 301C489.3 301 470.7 301 451.8 301C433 301 414 301 395.2 301C376.3 301 357.7 301 338.8 301C320 301 301 301 282.2 301C263.3 301 244.7 301 225.8 301C207 301 188 301 169.2 301C150.3 301 131.7 301 112.8 301C94 301 75 301 56.2 301C37.3 301 18.7 301 9.3 301L0 301Z" fill="#0a231a"></path><path d="M0 205L9.3 214.8C18.7 224.7 37.3 244.3 56.2 244.7C75 245 94 226 112.8 223.7C131.7 221.3 150.3 235.7 169.2 241.8C188 248 207 246 225.8 237.2C244.7 228.3 263.3 212.7 282.2 215.2C301 217.7 320 238.3 338.8 248.5C357.7 258.7 376.3 258.3 395.2 258.2C414 258 433 258 451.8 257.5C470.7 257 489.3 256 508.2 246.3C527 236.7 546 218.3 564.8 219.3C583.7 220.3 602.3 240.7 621.2 244.5C640 248.3 659 235.7 677.8 224.3C696.7 213 715.3 203 734.2 206.5C753 210 772 227 790.8 233C809.7 239 828.3 234 847.2 237C866 240 885 251 903.8 245.8C922.7 240.7 941.3 219.3 950.7 208.7L960 198L960 301L950.7 301C941.3 301 922.7 301 903.8 301C885 301 866 301 847.2 301C828.3 301 809.7 301 790.8 301C772 301 753 301 734.2 301C715.3 301 696.7 301 677.8 301C659 301 640 301 621.2 301C602.3 301 583.7 301 564.8 301C546 301 527 301 508.2 301C489.3 301 470.7 301 451.8 301C433 301 414 301 395.2 301C376.3 301 357.7 301 338.8 301C320 301 301 301 282.2 301C263.3 301 244.7 301 225.8 301C207 301 188 301 169.2 301C150.3 301 131.7 301 112.8 301C94 301 75 301 56.2 301C37.3 301 18.7 301 9.3 301L0 301Z" fill="#0a251c"></path><path d="M0 243L9.3 245C18.7 247 37.3 251 56.2 255.7C75 260.3 94 265.7 112.8 268.7C131.7 271.7 150.3 272.3 169.2 261.8C188 251.3 207 229.7 225.8 228.2C244.7 226.7 263.3 245.3 282.2 249.5C301 253.7 320 243.3 338.8 234C357.7 224.7 376.3 216.3 395.2 223C414 229.7 433 251.3 451.8 261.8C470.7 272.3 489.3 271.7 508.2 263.3C527 255 546 239 564.8 236.3C583.7 233.7 602.3 244.3 621.2 252.3C640 260.3 659 265.7 677.8 260.7C696.7 255.7 715.3 240.3 734.2 236.3C753 232.3 772 239.7 790.8 246.2C809.7 252.7 828.3 258.3 847.2 258.7C866 259 885 254 903.8 255.7C922.7 257.3 941.3 265.7 950.7 269.8L960 274L960 301L950.7 301C941.3 301 922.7 301 903.8 301C885 301 866 301 847.2 301C828.3 301 809.7 301 790.8 301C772 301 753 301 734.2 301C715.3 301 696.7 301 677.8 301C659 301 640 301 621.2 301C602.3 301 583.7 301 564.8 301C546 301 527 301 508.2 301C489.3 301 470.7 301 451.8 301C433 301 414 301 395.2 301C376.3 301 357.7 301 338.8 301C320 301 301 301 282.2 301C263.3 301 244.7 301 225.8 301C207 301 188 301 169.2 301C150.3 301 131.7 301 112.8 301C94 301 75 301 56.2 301C37.3 301 18.7 301 9.3 301L0 301Z" fill="#0b271e"></path><path d="M0 249L9.3 254.2C18.7 259.3 37.3 269.7 56.2 270.8C75 272 94 264 112.8 258C131.7 252 150.3 248 169.2 245.7C188 243.3 207 242.7 225.8 247.5C244.7 252.3 263.3 262.7 282.2 263C301 263.3 320 253.7 338.8 248.8C357.7 244 376.3 244 395.2 249.8C414 255.7 433 267.3 451.8 266.5C470.7 265.7 489.3 252.3 508.2 249C527 245.7 546 252.3 564.8 252.5C583.7 252.7 602.3 246.3 621.2 249.2C640 252 659 264 677.8 264C696.7 264 715.3 252 734.2 250.3C753 248.7 772 257.3 790.8 258.8C809.7 260.3 828.3 254.7 847.2 256.5C866 258.3 885 267.7 903.8 268.5C922.7 269.3 941.3 261.7 950.7 257.8L960 254L960 301L950.7 301C941.3 301 922.7 301 903.8 301C885 301 866 301 847.2 301C828.3 301 809.7 301 790.8 301C772 301 753 301 734.2 301C715.3 301 696.7 301 677.8 301C659 301 640 301 621.2 301C602.3 301 583.7 301 564.8 301C546 301 527 301 508.2 301C489.3 301 470.7 301 451.8 301C433 301 414 301 395.2 301C376.3 301 357.7 301 338.8 301C320 301 301 301 282.2 301C263.3 301 244.7 301 225.8 301C207 301 188 301 169.2 301C150.3 301 131.7 301 112.8 301C94 301 75 301 56.2 301C37.3 301 18.7 301 9.3 301L0 301Z" fill="#0b2a1f"></path><path d="M0 266L9.3 269.2C18.7 272.3 37.3 278.7 56.2 282.7C75 286.7 94 288.3 112.8 284.7C131.7 281 150.3 272 169.2 269.3C188 266.7 207 270.3 225.8 272.3C244.7 274.3 263.3 274.7 282.2 274.8C301 275 320 275 338.8 275.3C357.7 275.7 376.3 276.3 395.2 274.5C414 272.7 433 268.3 451.8 265.7C470.7 263 489.3 262 508.2 267.5C527 273 546 285 564.8 286.2C583.7 287.3 602.3 277.7 621.2 275.8C640 274 659 280 677.8 281.8C696.7 283.7 715.3 281.3 734.2 279.5C753 277.7 772 276.3 790.8 279.3C809.7 282.3 828.3 289.7 847.2 288.3C866 287 885 277 903.8 269.8C922.7 262.7 941.3 258.3 950.7 256.2L960 254L960 301L950.7 301C941.3 301 922.7 301 903.8 301C885 301 866 301 847.2 301C828.3 301 809.7 301 790.8 301C772 301 753 301 734.2 301C715.3 301 696.7 301 677.8 301C659 301 640 301 621.2 301C602.3 301 583.7 301 564.8 301C546 301 527 301 508.2 301C489.3 301 470.7 301 451.8 301C433 301 414 301 395.2 301C376.3 301 357.7 301 338.8 301C320 301 301 301 282.2 301C263.3 301 244.7 301 225.8 301C207 301 188 301 169.2 301C150.3 301 131.7 301 112.8 301C94 301 75 301 56.2 301C37.3 301 18.7 301 9.3 301L0 301Z" fill="#0c2c21"></path></svg>