<svg id="visual" viewBox="0 0 960 300" width="960" height="300" xmlns="http://www.w3.org/2000/svg" xmlns:xlink="http://www.w3.org/1999/xlink" version="1.1"><rect x="0" y="0" width="960" height="300" fill="#171617"></rect><path d="M0 198L14.5 198C29 198 58 198 87.2 207.3C116.3 216.7 145.7 235.3 174.8 245.7C204 256 233 258 262 243C291 228 320 196 349 197.3C378 198.7 407 233.3 436.2 241.5C465.3 249.7 494.7 231.3 523.8 229.8C553 228.3 582 243.7 611 240.3C640 237 669 215 698 214.8C727 214.7 756 236.3 785.2 249.3C814.3 262.3 843.7 266.7 872.8 266.7C902 266.7 931 262.3 945.5 260.2L960 258L960 0L945.5 0C931 0 902 0 872.8 0C843.7 0 814.3 0 785.2 0C756 0 727 0 698 0C669 0 640 0 611 0C582 0 553 0 523.8 0C494.7 0 465.3 0 436.2 0C407 0 378 0 349 0C320 0 291 0 262 0C233 0 204 0 174.8 0C145.7 0 116.3 0 87.2 0C58 0 29 0 14.5 0L0 0Z" fill="#262527"></path><path d="M0 250L14.5 249.5C29 249 58 248 87.2 243.7C116.3 239.3 145.7 231.7 174.8 217.2C204 202.7 233 181.3 262 180.5C291 179.7 320 199.3 349 202.2C378 205 407 191 436.2 181.2C465.3 171.3 494.7 165.7 523.8 173.7C553 181.7 582 203.3 611 210.3C640 217.3 669 209.7 698 196.7C727 183.7 756 165.3 785.2 175C814.3 184.7 843.7 222.3 872.8 240.5C902 258.7 931 257.3 945.5 256.7L960 256L960 0L945.5 0C931 0 902 0 872.8 0C843.7 0 814.3 0 785.2 0C756 0 727 0 698 0C669 0 640 0 611 0C582 0 553 0 523.8 0C494.7 0 465.3 0 436.2 0C407 0 378 0 349 0C320 0 291 0 262 0C233 0 204 0 174.8 0C145.7 0 116.3 0 87.2 0C58 0 29 0 14.5 0L0 0Z" fill="#3c3c49"></path><path d="M0 155L14.5 150.5C29 146 58 137 87.2 137.7C116.3 138.3 145.7 148.7 174.8 161.3C204 174 233 189 262 184.5C291 180 320 156 349 157.2C378 158.3 407 184.7 436.2 187.3C465.3 190 494.7 169 523.8 167.5C553 166 582 184 611 195C640 206 669 210 698 210.8C727 211.7 756 209.3 785.2 195.7C814.3 182 843.7 157 872.8 150.8C902 144.7 931 157.3 945.5 163.7L960 170L960 0L945.5 0C931 0 902 0 872.8 0C843.7 0 814.3 0 785.2 0C756 0 727 0 698 0C669 0 640 0 611 0C582 0 553 0 523.8 0C494.7 0 465.3 0 436.2 0C407 0 378 0 349 0C320 0 291 0 262 0C233 0 204 0 174.8 0C145.7 0 116.3 0 87.2 0C58 0 29 0 14.5 0L0 0Z" fill="#4b566e"></path><path d="M0 131L14.5 136.3C29 141.7 58 152.3 87.2 149C116.3 145.7 145.7 128.3 174.8 120.5C204 112.7 233 114.3 262 126C291 137.7 320 159.3 349 166.7C378 174 407 167 436.2 155.2C465.3 143.3 494.7 126.7 523.8 126.5C553 126.3 582 142.7 611 151.3C640 160 669 161 698 161.7C727 162.3 756 162.7 785.2 166.5C814.3 170.3 843.7 177.7 872.8 176.2C902 174.7 931 164.3 945.5 159.2L960 154L960 0L945.5 0C931 0 902 0 872.8 0C843.7 0 814.3 0 785.2 0C756 0 727 0 698 0C669 0 640 0 611 0C582 0 553 0 523.8 0C494.7 0 465.3 0 436.2 0C407 0 378 0 349 0C320 0 291 0 262 0C233 0 204 0 174.8 0C145.7 0 116.3 0 87.2 0C58 0 29 0 14.5 0L0 0Z" fill="#4f7495"></path><path d="M0 85L14.5 94.7C29 104.3 58 123.7 87.2 127.5C116.3 131.3 145.7 119.7 174.8 120.8C204 122 233 136 262 134.7C291 133.3 320 116.7 349 107.7C378 98.7 407 97.3 436.2 107.2C465.3 117 494.7 138 523.8 138.3C553 138.7 582 118.3 611 118.7C640 119 669 140 698 135.3C727 130.7 756 100.3 785.2 86.2C814.3 72 843.7 74 872.8 75.3C902 76.7 931 77.3 945.5 77.7L960 78L960 0L945.5 0C931 0 902 0 872.8 0C843.7 0 814.3 0 785.2 0C756 0 727 0 698 0C669 0 640 0 611 0C582 0 553 0 523.8 0C494.7 0 465.3 0 436.2 0C407 0 378 0 349 0C320 0 291 0 262 0C233 0 204 0 174.8 0C145.7 0 116.3 0 87.2 0C58 0 29 0 14.5 0L0 0Z" fill="#4795ba"></path><path d="M0 58L14.5 59.8C29 61.7 58 65.3 87.2 70.3C116.3 75.3 145.7 81.7 174.8 86.5C204 91.3 233 94.7 262 97.3C291 100 320 102 349 106C378 110 407 116 436.2 112C465.3 108 494.7 94 523.8 83C553 72 582 64 611 63.3C640 62.7 669 69.3 698 76.5C727 83.7 756 91.3 785.2 88.3C814.3 85.3 843.7 71.7 872.8 63C902 54.3 931 50.7 945.5 48.8L960 47L960 0L945.5 0C931 0 902 0 872.8 0C843.7 0 814.3 0 785.2 0C756 0 727 0 698 0C669 0 640 0 611 0C582 0 553 0 523.8 0C494.7 0 465.3 0 436.2 0C407 0 378 0 349 0C320 0 291 0 262 0C233 0 204 0 174.8 0C145.7 0 116.3 0 87.2 0C58 0 29 0 14.5 0L0 0Z" fill="#30b7d9"></path><path d="M0 71L14.5 67.2C29 63.3 58 55.7 87.2 58C116.3 60.3 145.7 72.7 174.8 77.5C204 82.3 233 79.7 262 71.8C291 64 320 51 349 49.8C378 48.7 407 59.3 436.2 57C465.3 54.7 494.7 39.3 523.8 35.3C553 31.3 582 38.7 611 39.7C640 40.7 669 35.3 698 42.2C727 49 756 68 785.2 67C814.3 66 843.7 45 872.8 40.2C902 35.3 931 46.7 945.5 52.3L960 58L960 0L945.5 0C931 0 902 0 872.8 0C843.7 0 814.3 0 785.2 0C756 0 727 0 698 0C669 0 640 0 611 0C582 0 553 0 523.8 0C494.7 0 465.3 0 436.2 0C407 0 378 0 349 0C320 0 291 0 262 0C233 0 204 0 174.8 0C145.7 0 116.3 0 87.2 0C58 0 29 0 14.5 0L0 0Z" fill="#00dbf1"></path><path d="M0 56L14.5 54.8C29 53.7 58 51.3 87.2 51.3C116.3 51.3 145.7 53.7 174.8 54.5C204 55.3 233 54.7 262 55.8C291 57 320 60 349 56.3C378 52.7 407 42.3 436.2 36.8C465.3 31.3 494.7 30.7 523.8 25.7C553 20.7 582 11.3 611 8.8C640 6.3 669 10.7 698 19.5C727 28.3 756 41.7 785.2 48.2C814.3 54.7 843.7 54.3 872.8 50.2C902 46 931 38 945.5 34L960 30L960 0L945.5 0C931 0 902 0 872.8 0C843.7 0 814.3 0 785.2 0C756 0 727 0 698 0C669 0 640 0 611 0C582 0 553 0 523.8 0C494.7 0 465.3 0 436.2 0C407 0 378 0 349 0C320 0 291 0 262 0C233 0 204 0 174.8 0C145.7 0 116.3 0 87.2 0C58 0 29 0 14.5 0L0 0Z" fill="#00ffff"></path></svg>