<svg id="visual" viewBox="0 0 960 300" width="960" height="300" xmlns="http://www.w3.org/2000/svg" xmlns:xlink="http://www.w3.org/1999/xlink" version="1.1"><rect x="0" y="0" width="960" height="300" fill="#171617"></rect><path d="M0 101L14.5 90.7C29 80.3 58 59.7 87.2 59C116.3 58.3 145.7 77.7 174.8 85.8C204 94 233 91 262 91.3C291 91.7 320 95.3 349 95.8C378 96.3 407 93.7 436.2 88.5C465.3 83.3 494.7 75.7 523.8 73.5C553 71.3 582 74.7 611 68.2C640 61.7 669 45.3 698 47.3C727 49.3 756 69.7 785.2 71C814.3 72.3 843.7 54.7 872.8 45.3C902 36 931 35 945.5 34.5L960 34L960 301L945.5 301C931 301 902 301 872.8 301C843.7 301 814.3 301 785.2 301C756 301 727 301 698 301C669 301 640 301 611 301C582 301 553 301 523.8 301C494.7 301 465.3 301 436.2 301C407 301 378 301 349 301C320 301 291 301 262 301C233 301 204 301 174.8 301C145.7 301 116.3 301 87.2 301C58 301 29 301 14.5 301L0 301Z" fill="#262527"></path><path d="M0 66L14.5 80.8C29 95.7 58 125.3 87.2 127.2C116.3 129 145.7 103 174.8 100.3C204 97.7 233 118.3 262 121.5C291 124.7 320 110.3 349 93.5C378 76.7 407 57.3 436.2 52.5C465.3 47.7 494.7 57.3 523.8 76C553 94.7 582 122.3 611 120.5C640 118.7 669 87.3 698 83.3C727 79.3 756 102.7 785.2 110.5C814.3 118.3 843.7 110.7 872.8 95.2C902 79.7 931 56.3 945.5 44.7L960 33L960 301L945.5 301C931 301 902 301 872.8 301C843.7 301 814.3 301 785.2 301C756 301 727 301 698 301C669 301 640 301 611 301C582 301 553 301 523.8 301C494.7 301 465.3 301 436.2 301C407 301 378 301 349 301C320 301 291 301 262 301C233 301 204 301 174.8 301C145.7 301 116.3 301 87.2 301C58 301 29 301 14.5 301L0 301Z" fill="#3c3c49"></path><path d="M0 178L14.5 169C29 160 58 142 87.2 128.7C116.3 115.3 145.7 106.7 174.8 108.2C204 109.7 233 121.3 262 119.5C291 117.7 320 102.3 349 92.7C378 83 407 79 436.2 81.7C465.3 84.3 494.7 93.7 523.8 99.5C553 105.3 582 107.7 611 111.8C640 116 669 122 698 118.5C727 115 756 102 785.2 110.7C814.3 119.3 843.7 149.7 872.8 147.7C902 145.7 931 111.3 945.5 94.2L960 77L960 301L945.5 301C931 301 902 301 872.8 301C843.7 301 814.3 301 785.2 301C756 301 727 301 698 301C669 301 640 301 611 301C582 301 553 301 523.8 301C494.7 301 465.3 301 436.2 301C407 301 378 301 349 301C320 301 291 301 262 301C233 301 204 301 174.8 301C145.7 301 116.3 301 87.2 301C58 301 29 301 14.5 301L0 301Z" fill="#4b566e"></path><path d="M0 134L14.5 129C29 124 58 114 87.2 123C116.3 132 145.7 160 174.8 159.3C204 158.7 233 129.3 262 123.3C291 117.3 320 134.7 349 146.3C378 158 407 164 436.2 170.2C465.3 176.3 494.7 182.7 523.8 184.7C553 186.7 582 184.3 611 175.5C640 166.7 669 151.3 698 138.8C727 126.3 756 116.7 785.2 115C814.3 113.3 843.7 119.7 872.8 134.8C902 150 931 174 945.5 186L960 198L960 301L945.5 301C931 301 902 301 872.8 301C843.7 301 814.3 301 785.2 301C756 301 727 301 698 301C669 301 640 301 611 301C582 301 553 301 523.8 301C494.7 301 465.3 301 436.2 301C407 301 378 301 349 301C320 301 291 301 262 301C233 301 204 301 174.8 301C145.7 301 116.3 301 87.2 301C58 301 29 301 14.5 301L0 301Z" fill="#4f7495"></path><path d="M0 184L14.5 184.3C29 184.7 58 185.3 87.2 177.7C116.3 170 145.7 154 174.8 155.3C204 156.7 233 175.3 262 185C291 194.7 320 195.3 349 187.8C378 180.3 407 164.7 436.2 155.3C465.3 146 494.7 143 523.8 145.7C553 148.3 582 156.7 611 161C640 165.3 669 165.7 698 169C727 172.3 756 178.7 785.2 187.8C814.3 197 843.7 209 872.8 206.7C902 204.3 931 187.7 945.5 179.3L960 171L960 301L945.5 301C931 301 902 301 872.8 301C843.7 301 814.3 301 785.2 301C756 301 727 301 698 301C669 301 640 301 611 301C582 301 553 301 523.8 301C494.7 301 465.3 301 436.2 301C407 301 378 301 349 301C320 301 291 301 262 301C233 301 204 301 174.8 301C145.7 301 116.3 301 87.2 301C58 301 29 301 14.5 301L0 301Z" fill="#4795ba"></path><path d="M0 242L14.5 238.5C29 235 58 228 87.2 221.2C116.3 214.3 145.7 207.7 174.8 204.5C204 201.3 233 201.7 262 209.7C291 217.7 320 233.3 349 241C378 248.7 407 248.3 436.2 238.2C465.3 228 494.7 208 523.8 204C553 200 582 212 611 211.7C640 211.3 669 198.7 698 196.5C727 194.3 756 202.7 785.2 205.2C814.3 207.7 843.7 204.3 872.8 204.7C902 205 931 209 945.5 211L960 213L960 301L945.5 301C931 301 902 301 872.8 301C843.7 301 814.3 301 785.2 301C756 301 727 301 698 301C669 301 640 301 611 301C582 301 553 301 523.8 301C494.7 301 465.3 301 436.2 301C407 301 378 301 349 301C320 301 291 301 262 301C233 301 204 301 174.8 301C145.7 301 116.3 301 87.2 301C58 301 29 301 14.5 301L0 301Z" fill="#30b7d9"></path><path d="M0 219L14.5 218.5C29 218 58 217 87.2 224.5C116.3 232 145.7 248 174.8 249.8C204 251.7 233 239.3 262 240.3C291 241.3 320 255.7 349 254.7C378 253.7 407 237.3 436.2 228.8C465.3 220.3 494.7 219.7 523.8 228.7C553 237.7 582 256.3 611 254.5C640 252.7 669 230.3 698 226.8C727 223.3 756 238.7 785.2 240.3C814.3 242 843.7 230 872.8 221.8C902 213.7 931 209.3 945.5 207.2L960 205L960 301L945.5 301C931 301 902 301 872.8 301C843.7 301 814.3 301 785.2 301C756 301 727 301 698 301C669 301 640 301 611 301C582 301 553 301 523.8 301C494.7 301 465.3 301 436.2 301C407 301 378 301 349 301C320 301 291 301 262 301C233 301 204 301 174.8 301C145.7 301 116.3 301 87.2 301C58 301 29 301 14.5 301L0 301Z" fill="#00dbf1"></path><path d="M0 267L14.5 271.7C29 276.3 58 285.7 87.2 288C116.3 290.3 145.7 285.7 174.8 283C204 280.3 233 279.7 262 276.3C291 273 320 267 349 260.5C378 254 407 247 436.2 245.3C465.3 243.7 494.7 247.3 523.8 249.7C553 252 582 253 611 250.5C640 248 669 242 698 242.3C727 242.7 756 249.3 785.2 255C814.3 260.7 843.7 265.3 872.8 264.5C902 263.7 931 257.3 945.5 254.2L960 251L960 301L945.5 301C931 301 902 301 872.8 301C843.7 301 814.3 301 785.2 301C756 301 727 301 698 301C669 301 640 301 611 301C582 301 553 301 523.8 301C494.7 301 465.3 301 436.2 301C407 301 378 301 349 301C320 301 291 301 262 301C233 301 204 301 174.8 301C145.7 301 116.3 301 87.2 301C58 301 29 301 14.5 301L0 301Z" fill="#00ffff"></path></svg>